<svg height="512" viewBox="0 0 64 64" width="512" xmlns="http://www.w3.org/2000/svg"><g fill="#9bc9ff"><path d="m19 38h10v20h-10z"/><path d="m33 28h10v30h-10z"/><path d="m47 18h10v40h-10z"/><path d="m17 35 23.042-23.042 2.828 2.829 1.414-11.314-11.313 1.414 2.828 2.829-23.042 23.041z"/></g><path d="m61 57h-3v-39a1 1 0 0 0 -1-1h-10a1 1 0 0 0 -1 1v39h-2v-29a1 1 0 0 0 -1-1h-10a1 1 0 0 0 -1 1v29h-2v-19a1 1 0 0 0 -1-1h-10a1 1 0 0 0 -1 1v19h-6v-.341a6.01 6.01 0 0 0 2.3-9.859l-.008-.008a6.033 6.033 0 0 0 -4.292-1.792 1 1 0 1 1 1-1 1 1 0 0 0 1 1h3a1 1 0 0 0 1-1 6.025 6.025 0 0 0 -3-5.2v-1.8a1 1 0 0 0 -1-1h-3a1 1 0 0 0 -1 1v1.341a6 6 0 0 0 2 11.659 1 1 0 1 1 -1 1 1 1 0 0 0 -1-1h-3a1 1 0 0 0 -1 1 6.025 6.025 0 0 0 3 5.2v.8h-4a1 1 0 0 0 -1 1v3a1 1 0 0 0 1 1h58a1 1 0 0 0 1-1v-3a1 1 0 0 0 -1-1zm-13-38h8v38h-8zm-14 10h8v28h-8zm-14 10h8v18h-8zm-11.6 15.676a4.047 4.047 0 0 1 -2.273-2.676h1.044a3 3 0 1 0 2.829-4 4.04 4.04 0 0 1 -2.865-1.2 4.008 4.008 0 0 1 2.065-6.719 1 1 0 0 0 .8-.981v-1.1h1v1.41a1 1 0 0 0 .6.914 4.047 4.047 0 0 1 2.273 2.676h-1.044a3 3 0 1 0 -2.829 4 4.045 4.045 0 0 1 2.869 1.2 4.008 4.008 0 0 1 -2.069 6.719 1 1 0 0 0 -.8.981v1.1h-1v-1.41a1 1 0 0 0 -.6-.914zm51.6 5.324h-56v-1h56z" fill="#1e81ce"/><path d="m17 36a1 1 0 0 1 -.707-.293l-4.243-4.243a1 1 0 0 1 0-1.414l22.335-22.334-2.121-2.122a1 1 0 0 1 .583-1.7l11.313-1.413a1 1 0 0 1 1.116 1.119l-1.414 11.311a1 1 0 0 1 -1.7.583l-2.121-2.121-22.334 22.334a1 1 0 0 1 -.707.293zm-2.829-5.243 2.829 2.829 22.335-22.335a1 1 0 0 1 1.414 0l1.383 1.383 1-8.009-8.01 1 1.383 1.383a1 1 0 0 1 0 1.414z" fill="#1e81ce"/></svg>