<?xml version="1.0"?>
<svg xmlns="http://www.w3.org/2000/svg" viewBox="0 0 64 64" width="512" height="512"><g id="Secure"><path d="M52,22.95v7.97A24.082,24.082,0,0,1,40.09,51.65L32,56.37l-8.09-4.72A24.082,24.082,0,0,1,12,30.92V13.88L32,7.22l9.364,3.118a9.985,9.985,0,0,1,1.844-3.6l0,0L32,3,8,11V30.92A27.982,27.982,0,0,0,21.89,55.1L32,61l10.11-5.9A27.982,27.982,0,0,0,56,30.92V21.651A9.927,9.927,0,0,1,52,22.95Z" style="fill:#9bc9ff"/><path d="M31,22v2.1A5,5,0,0,0,32,34a2,2,0,1,1-2,2H27a5.029,5.029,0,0,0,3,4.59V43h3V40.9A5,5,0,0,0,32,31a2,2,0,1,1,2-2h3a5.029,5.029,0,0,0-3-4.59V22Z" style="fill:#9bc9ff"/><path d="M62,13A10.983,10.983,0,0,0,42.9,5.585L32.317,2.051a1.008,1.008,0,0,0-.633,0l-24,8A1,1,0,0,0,7,11V30.92A29.078,29.078,0,0,0,21.386,55.964l10.11,5.9a1,1,0,0,0,1.008,0l10.109-5.9A29.077,29.077,0,0,0,57,30.92V22.208A11,11,0,0,0,62,13ZM51,24v6.92A23.084,23.084,0,0,1,39.586,50.786L32,55.212l-7.586-4.426A23.086,23.086,0,0,1,13,30.92V14.6L32,8.274,40.19,11A10.963,10.963,0,0,0,51,24Zm4,6.92A27.069,27.069,0,0,1,41.606,54.236L32,59.842l-9.606-5.606A27.069,27.069,0,0,1,9,30.92v-19.2L32,4.054,41.628,7.27a10.914,10.914,0,0,0-.892,1.807l-8.42-2.806a1,1,0,0,0-.632,0l-20,6.66A1,1,0,0,0,11,13.88V30.92A25.094,25.094,0,0,0,23.406,52.514l8.09,4.72a1,1,0,0,0,1.008,0l8.09-4.72A25.094,25.094,0,0,0,53,30.92V23.809a10.908,10.908,0,0,0,2-.573ZM51,22a9,9,0,1,1,9-9A9.01,9.01,0,0,1,51,22Z" style="fill:#1e81ce"/><path d="M55.364,9.222,49,15.586l-2.293-2.293a1,1,0,0,0-1.414,1.414l3,3a1,1,0,0,0,1.414,0l7.071-7.071a1,1,0,1,0-1.414-1.414Z" style="fill:#1e81ce"/><path d="M33,44H30a1,1,0,0,1-1-1V41.2A6.025,6.025,0,0,1,26,36a1,1,0,0,1,1-1h3a1,1,0,0,1,1,1,1,1,0,1,0,1-1,6,6,0,0,1-2-11.659V22a1,1,0,0,1,1-1h3a1,1,0,0,1,1,1v1.8A6.025,6.025,0,0,1,38,29a1,1,0,0,1-1,1H34a1,1,0,0,1-1-1,1,1,0,1,0-1,1,6.033,6.033,0,0,1,4.287,1.793l.008.008A6.01,6.01,0,0,1,34,41.659V43A1,1,0,0,1,33,44Zm-2-2h1V40.9a1,1,0,0,1,.8-.981A4.008,4.008,0,0,0,34.869,33.2,4.045,4.045,0,0,0,32,32a3,3,0,1,1,2.829-4h1.043A4.046,4.046,0,0,0,33.6,25.324,1,1,0,0,1,33,24.41V23H32v1.1a1,1,0,0,1-.8.981A4,4,0,0,0,32,33a3,3,0,1,1-2.829,4H28.127a4.047,4.047,0,0,0,2.278,2.676A1,1,0,0,1,31,40.59Z" style="fill:#1e81ce"/></g></svg>
