<svg height="512" viewBox="0 0 64 64" width="512" xmlns="http://www.w3.org/2000/svg"><path d="m11 22 3 .002v12.998h6v-13h3l-6-9z" fill="none"/><circle cx="40" cy="24" fill="none" r="13" transform="matrix(.345 -.939 .939 .345 3.671 53.261)"/><circle cx="40" cy="24" fill="none" r="13" transform="matrix(.345 -.939 .939 .345 3.671 53.261)"/><path d="m11 22 3 .002v12.998h6v-13h3l-6-9z" fill="none"/><g fill="#9bc9ff"><path d="m57 3h-50a4 4 0 0 0 -4 4v36a4 4 0 0 0 4 4h40.506l-3.336-5.778.385-.222h-37.555v-34h50v34h-1.411l3.211 5.568a3.99 3.99 0 0 0 2.2-3.568v-36a4 4 0 0 0 -4-4z"/><path d="m24 47h16v8h-16z"/><path d="m17 55a4 4 0 0 0 -4 4v2h38v-2a4 4 0 0 0 -4-4z"/><path d="m20 35v-13h3l-6-9-6 9 3 .002v12.998z"/><path d="m51.1 37.222-5.2 3-1.732 1 3.338 5.778 3.164 5.481a5 5 0 0 0 8.66-5l-.527-.913-5.973-10.346z"/></g><path d="m11 22 3 .002v12.998h6v-13h3l-6-9z" fill="none"/><circle cx="40" cy="24" fill="none" r="9" transform="matrix(.83 -.558 .558 .83 -6.584 26.427)"/><path d="m46.5 35.258a12.93 12.93 0 0 1 -2.691 1.162l2.093 3.8 5.2-3-2.115-3.841a13 13 0 0 1 -2.487 1.879z" fill="#9bc9ff"/><path d="m51.258 17.5a13.054 13.054 0 1 0 -2.275 15.881 13 13 0 0 0 2.275-15.881zm-6.758 14.294a9 9 0 1 1 3.294-12.294 9 9 0 0 1 -3.294 12.294z" fill="#9bc9ff"/><path d="m40 23a1 1 0 1 1 1-1 1 1 0 0 0 2 0 3 3 0 0 0 -2-2.816v-1.184a1 1 0 0 0 -2 0v1.184a2.993 2.993 0 0 0 1 5.816 1 1 0 1 1 -1 1 1 1 0 0 0 -2 0 3 3 0 0 0 2 2.816v1.184a1 1 0 0 0 2 0v-1.184a2.993 2.993 0 0 0 -1-5.816z" fill="#1e81ce"/><path d="m20 36h-6a1 1 0 0 1 -1-1v-12h-2a1 1 0 0 1 -.831-1.555l6-9a1.039 1.039 0 0 1 1.664 0l6 9a1 1 0 0 1 -.833 1.555h-2v12a1 1 0 0 1 -1 1zm-5-2h4v-12a1 1 0 0 1 1-1h1.131l-4.131-6.2-4.132 6.2h1.132a1 1 0 0 1 1 1z" fill="#1e81ce"/><path d="m62 43v-36a5.006 5.006 0 0 0 -5-5h-50a5.006 5.006 0 0 0 -5 5v36a5.006 5.006 0 0 0 5 5h16v6h-6a5.006 5.006 0 0 0 -5 5v2a1 1 0 0 0 1 1h38a1 1 0 0 0 1-1v-2a5.006 5.006 0 0 0 -5-5h-6v-6h5.928l2.872 4.981a6 6 0 0 0 10.392-6l-.059-.1a4.956 4.956 0 0 0 1.867-3.881zm-12 16v1h-36v-1a3 3 0 0 1 3-3h30a3 3 0 0 1 3 3zm-25-5v-6h14v6zm33.864-2.984a4 4 0 0 1 -7.328.965l-6-10.392 6.928-4 6 10.392a3.972 3.972 0 0 1 .4 3.035zm-6.739-34.016a14.006 14.006 0 1 0 -8.884 20.614l1.3 2.243-.254.143h-36.287v-32h48v31.713l-2.3-3.99a1 1 0 0 0 -1.366-.367l-.866.5-1.3-2.242a14.021 14.021 0 0 0 1.957-16.614zm-15.231 18.591a12 12 0 0 1 3.086-23.591 12.075 12.075 0 0 1 3.126.414 12 12 0 0 1 -6.212 23.182zm10.106.534a14 14 0 0 0 1.652-1.139l1.08 1.87-3.464 2-1.068-1.856a14.048 14.048 0 0 0 1.8-.875zm13 6.875a2.973 2.973 0 0 1 -.881 2.116l-1.832-3.174a.988.988 0 0 0 .713-.942v-34a1 1 0 0 0 -1-1h-50a1 1 0 0 0 -1 1v34a1 1 0 0 0 1 1h36.464l2.309 4h-38.773a3 3 0 0 1 -3-3v-36a3 3 0 0 1 3-3h50a3 3 0 0 1 3 3z" fill="#1e81ce"/><path d="m35 15.339a10 10 0 1 0 13.661 3.661 10.014 10.014 0 0 0 -13.661-3.661zm9 15.589a8 8 0 1 1 2.928-10.928 8.009 8.009 0 0 1 -2.928 10.928z" fill="#1e81ce"/></svg>