<svg xmlns="http://www.w3.org/2000/svg" height="70pt" version="1.1" viewBox="-11 0 70 70.345554" width="70pt">
<g id="surface1">
<path d="M 32.449219 37.988281 C 31.765625 37.890625 31.128906 38.367188 31.035156 39.054688 C 30.941406 39.738281 31.417969 40.375 32.105469 40.472656 C 37.855469 41.277344 45.015625 43.570312 46.574219 49.96875 L 46.574219 61.898438 C 45.171875 62.136719 42.433594 62.570312 38.933594 62.941406 L 39.714844 51.183594 C 39.765625 50.503906 39.246094 49.910156 38.5625 49.863281 C 38.535156 49.855469 38.503906 49.855469 38.476562 49.855469 L 9.953125 49.855469 C 9.265625 49.855469 8.707031 50.40625 8.707031 51.097656 C 8.707031 51.125 8.707031 51.152344 8.710938 51.183594 L 9.492188 62.855469 C 6.363281 62.496094 3.910156 62.113281 2.621094 61.886719 L 2.621094 49.945312 C 4.1875 43.546875 11.300781 41.261719 17.097656 40.441406 C 17.78125 40.351562 18.257812 39.714844 18.160156 39.03125 C 18.066406 38.34375 17.433594 37.867188 16.75 37.964844 C 7.335938 39.28125 1.605469 43.257812 0.179688 49.496094 C 0.171875 49.585938 0.171875 49.679688 0.179688 49.769531 L 0.179688 62.917969 C 0.164062 63.519531 0.589844 64.042969 1.183594 64.15625 C 1.332031 64.15625 4.691406 64.824219 9.691406 65.398438 L 9.9375 69.195312 C 9.984375 69.84375 10.527344 70.34375 11.179688 70.34375 L 37.222656 70.34375 C 37.875 70.34375 38.417969 69.84375 38.460938 69.195312 L 38.714844 65.472656 C 44.132812 64.902344 47.828125 64.234375 47.988281 64.234375 C 48.582031 64.117188 49.003906 63.589844 48.996094 62.988281 L 48.996094 49.792969 C 49.003906 49.703125 49.003906 49.609375 48.996094 49.523438 C 47.640625 43.285156 41.859375 39.304688 32.449219 37.988281 Z M 12.382812 67.816406 L 11.355469 52.3125 L 37.160156 52.3125 L 36.132812 67.816406 Z M 12.382812 67.816406 " style="fill:white;" />
<path d="M 10.171875 28.421875 C 10.300781 28.4375 10.425781 28.4375 10.542969 28.421875 C 11.011719 28.59375 11.503906 28.667969 11.996094 28.648438 C 14.699219 34.132812 19.4375 37.492188 24.644531 37.492188 C 29.855469 37.492188 34.570312 34.132812 37.300781 28.648438 C 37.789062 28.664062 38.273438 28.585938 38.738281 28.421875 C 38.863281 28.4375 38.984375 28.4375 39.109375 28.421875 L 42.519531 28.421875 C 43.890625 28.421875 45 27.316406 45 25.945312 L 45 17.152344 C 45 15.785156 43.890625 14.667969 42.519531 14.667969 L 39.394531 14.667969 C 38.886719 7.230469 36.378906 0 24.636719 0 C 12.890625 0 10.433594 7.183594 9.875 14.667969 L 6.710938 14.667969 C 5.34375 14.667969 4.234375 15.785156 4.234375 17.152344 L 4.234375 25.929688 C 4.234375 27.304688 5.34375 28.414062 6.710938 28.414062 Z M 42.519531 25.945312 L 39.109375 25.945312 L 39.109375 17.152344 L 42.519531 17.152344 Z M 24.636719 2.492188 C 34.34375 2.492188 36.605469 7.617188 36.976562 15.914062 C 36.75 16.289062 36.636719 16.714844 36.628906 17.152344 L 36.628906 25.921875 C 36.460938 25.917969 36.296875 25.945312 36.144531 26.007812 C 35.828125 26.128906 35.585938 26.371094 35.449219 26.679688 L 35.449219 26.789062 C 33.371094 28.042969 30.980469 28.679688 28.554688 28.625 C 28.25 27.503906 27.238281 26.71875 26.074219 26.703125 L 22.53125 26.703125 C 21.089844 26.703125 19.921875 27.871094 19.921875 29.304688 L 19.921875 30.398438 C 19.921875 31.835938 21.089844 33.003906 22.53125 33.003906 L 25.984375 33.003906 C 27.144531 32.992188 28.152344 32.226562 28.46875 31.117188 C 30.054688 31.097656 31.636719 30.886719 33.167969 30.488281 C 31.160156 33.214844 28.011719 34.875 24.621094 34.984375 C 20.15625 34.984375 16.015625 31.8125 13.808594 26.6875 C 13.679688 26.382812 13.425781 26.136719 13.113281 26.019531 C 12.960938 25.960938 12.796875 25.929688 12.632812 25.929688 L 12.632812 17.152344 C 12.628906 16.714844 12.507812 16.289062 12.285156 15.914062 C 12.664062 7.617188 14.925781 2.492188 24.636719 2.492188 Z M 26.109375 29.304688 L 26.109375 30.398438 C 26.109375 30.46875 26.054688 30.519531 25.984375 30.519531 L 22.53125 30.519531 C 22.457031 30.519531 22.402344 30.46875 22.402344 30.398438 L 22.402344 29.320312 C 22.402344 29.253906 22.457031 29.195312 22.53125 29.195312 L 25.984375 29.195312 C 26.054688 29.195312 26.105469 29.242188 26.109375 29.304688 Z M 6.710938 17.152344 L 10.125 17.152344 L 10.125 25.929688 L 6.710938 25.929688 Z M 6.710938 17.152344 " style=" stroke:none;fill:white;" />
</g>
</svg>