<svg height="512" viewBox="0 0 64 64" width="512" xmlns="http://www.w3.org/2000/svg"><path d="" fill="#9bc9ff"/><path d="" fill="none"/><path d="m25.18 49.03a2.009 2.009 0 0 1 -2.58.74 20.966 20.966 0 0 1 -4.93-3.44 20.966 20.966 0 0 1 -3.44-4.93 2.009 2.009 0 0 1 .74-2.58l2.706-1.7-8-16.294c-3.003 1.817-6.676 4.874-6.676 8.174v1a31.564 31.564 0 0 0 31 31h1c3.3 0 6.357-3.673 8.178-6.671l-16.294-8.005z" fill="#9bc9ff"/><path d="m43 3a17.986 17.986 0 0 0 -15.17 27.67l-1.83 7.33 7.33-1.83a18 18 0 1 0 9.67-33.17zm0 32a14 14 0 1 1 14-14 14 14 0 0 1 -14 14z" fill="#9bc9ff"/><path d="m43 16a2.006 2.006 0 0 1 2 2h3a5.029 5.029 0 0 0 -3-4.59v-2.41h-3v2.1a5 5 0 0 0 1 9.9 2 2 0 1 1 -2 2h-3a5.029 5.029 0 0 0 3 4.59v2.41h3v-2.1a5 5 0 0 0 -1-9.9 2 2 0 0 1 0-4z" fill="#9bc9ff"/><g fill="#1e81ce"><path d="m44 33h-3a1 1 0 0 1 -1-1v-1.8a6.025 6.025 0 0 1 -3-5.2 1 1 0 0 1 1-1h3a1 1 0 0 1 1 1 1 1 0 1 0 1-1 6 6 0 0 1 -2-11.659v-1.341a1 1 0 0 1 1-1h3a1 1 0 0 1 1 1v1.8a6.025 6.025 0 0 1 3 5.2 1 1 0 0 1 -1 1h-3a1 1 0 0 1 -1-1 1 1 0 1 0 -1 1 6.033 6.033 0 0 1 4.287 1.793l.008.008a6.01 6.01 0 0 1 -2.295 9.858v1.341a1 1 0 0 1 -1 1zm-2-2h1v-1.1a1 1 0 0 1 .8-.981 4.008 4.008 0 0 0 2.069-6.719 4.045 4.045 0 0 0 -2.869-1.2 3 3 0 1 1 2.829-4h1.043a4.046 4.046 0 0 0 -2.272-2.676 1 1 0 0 1 -.6-.914v-1.41h-1v1.1a1 1 0 0 1 -.8.981 4 4 0 0 0 .8 7.919 3 3 0 1 1 -2.829 4h-1.043a4.046 4.046 0 0 0 2.277 2.676 1 1 0 0 1 .595.914z"/><path d="m43.7 48.94-12.629-6.132a3.021 3.021 0 0 0 -3.846 1.1l-2.891 4.592a1 1 0 0 1 -1.285.38 19.9 19.9 0 0 1 -4.65-3.23 19.9 19.9 0 0 1 -3.27-4.686 1.006 1.006 0 0 1 .374-1.294l4.6-2.894a3.02 3.02 0 0 0 1.09-3.849l-6.133-12.627a2.966 2.966 0 0 0 -1.732-1.526 3.014 3.014 0 0 0 -2.334.168c-.92.458-8.994 4.641-8.994 10.058v1a32.61 32.61 0 0 0 9.525 22.459l.016.016a32.61 32.61 0 0 0 22.459 9.525h1c5.415 0 9.6-8.073 10.053-8.989a3.014 3.014 0 0 0 .17-2.339 2.967 2.967 0 0 0 -1.523-1.732zm-13.5-4.331 12.62 6.13a.985.985 0 0 1 .505.573 1.036 1.036 0 0 1 -.062.8c-.142.284-.307.591-.483.908l-14.466-7.091.6-.95a1.016 1.016 0 0 1 1.286-.37zm-18.309-23.877a1.026 1.026 0 0 1 .8-.06.981.981 0 0 1 .573.5l6.127 12.615a1.016 1.016 0 0 1 -.362 1.292l-.956.6-7.095-14.461c.322-.177.627-.343.913-.486zm23.109 39.268h-1a30.564 30.564 0 0 1 -30-30v-1c0-2.517 2.68-5.009 5.265-6.735l7.1 14.492-1.933 1.218a3.007 3.007 0 0 0 -1.1 3.874 21.962 21.962 0 0 0 3.648 5.21 21.984 21.984 0 0 0 5.175 3.609 3 3 0 0 0 3.865-1.106l1.217-1.931 14.492 7.1c-1.72 2.588-4.213 5.269-6.729 5.269z"/><path d="m43 2a18.987 18.987 0 0 0 -16.243 28.84l-1.728 6.918a1 1 0 0 0 1.213 1.212l6.918-1.727a19 19 0 1 0 9.84-35.243zm0 36a16.875 16.875 0 0 1 -9.13-2.672 1 1 0 0 0 -.782-.128l-5.714 1.426 1.426-5.714a1.006 1.006 0 0 0 -.129-.782 16.992 16.992 0 1 1 14.329 7.87z"/><path d="m43 6a15 15 0 1 0 15 15 15.017 15.017 0 0 0 -15-15zm0 28a13 13 0 1 1 13-13 13.015 13.015 0 0 1 -13 13z"/></g></svg>