<svg height="480pt" viewBox="0 0 480.0005 480" width="480pt" xmlns="http://www.w3.org/2000/svg"><g fill="#9bc9ff"><path d="m456 408h-304v32h304zm0 0"/><path d="m456 72v-32h-304v32zm0 0"/><path d="m248 280h112v128h80v-336h-272v336h80zm56-168c35.347656 0 64 28.652344 64 64s-28.652344 64-64 64-64-28.652344-64-64 28.652344-64 64-64zm0 0"/><path d="m116.480469 274c2.363281-5.703125 3.558593-11.824219 3.519531-18 .007812-14.507812-6.550781-28.242188-17.839844-37.359375 1.226563-3.414063 1.847656-7.015625 1.839844-10.640625 0-17.671875-14.328125-32-32-32s-32 14.328125-32 32c-.007812 3.625.617188 7.226562 1.839844 10.640625-11.285156 9.117187-17.84375 22.851563-17.839844 37.359375-.039062 6.175781 1.160156 12.296875 3.519531 18-18.753906 18.128906-24.628906 45.824219-14.851562 70.003906 9.773437 24.183594 33.25 40.011719 59.332031 40.011719s49.558594-15.828125 59.335938-40.011719c9.777343-24.179687 3.898437-51.875-14.855469-70.003906zm0 0"/></g><path d="m464 432v-32h-16v-320h16v-48h-32v-32h-64v32h-16v-32h-64v32h-144v48h16v320h-16v32h-64v-40.472656c36.414062-4.105469 63.949219-34.882813 64-71.527344.066406-17.71875-6.464844-34.828125-18.320312-48 1.558593-5.191406 2.339843-10.582031 2.320312-16 .027344-15.054688-6.03125-29.480469-16.800781-40 3.226562-15.894531-3.460938-32.160156-16.933594-41.1875-13.46875-9.027344-31.058594-9.027344-44.53125 0s-20.160156 25.292969-16.933594 41.1875c-10.765625 10.519531-16.824219 24.945312-16.800781 40-.019531 5.417969.761719 10.808594 2.320312 16-11.855468 13.171875-18.3867182 30.28125-18.320312 48 .0507812 36.644531 27.585938 67.421875 64 71.527344v40.472656h-64v48h480v-48zm-448-112c-.050781-15.1875 6.121094-29.734375 17.082031-40.246094l3.933594-3.808594-2.117187-5.050781c-1.953126-4.71875-2.9375-9.785156-2.898438-14.894531-.027344-12.101562 5.445312-23.558594 14.871094-31.144531l4.410156-3.558594-1.90625-5.34375c-.917969-2.550781-1.382812-5.242187-1.375-7.953125 0-13.253906 10.746094-24 24-24s24 10.746094 24 24c.011719 2.710938-.457031 5.402344-1.375 7.953125l-1.90625 5.34375 4.410156 3.558594c9.425782 7.585937 14.898438 19.042969 14.871094 31.144531.039062 5.109375-.945312 10.175781-2.894531 14.894531l-2.121094 5.050781 3.9375 3.808594c15.363281 14.835938 20.9375 37.125 14.363281 57.449219-6.570312 20.320313-24.140625 35.128906-45.285156 38.15625v-27.359375l28.800781-21.601562-9.601562-12.796876-19.199219 14.398438v-40h-16v40l-19.199219-14.398438-9.601562 12.796876 28.800781 21.601562v27.359375c-27.527344-3.972656-47.96875-27.546875-48-55.359375zm368-304h32v16h-32zm-80 0h32v16h-32zm-144 32h288v16h-288zm16 32h256v320h-64v-128h-128v128h-64zm80 320v-112h40v112zm56-112h40v112h-40zm-152 128h288v16h-288zm304 48h-448v-16h448zm0 0" fill="#1e81ce"/><path d="m304 248c39.765625 0 72-32.234375 72-72s-32.234375-72-72-72-72 32.234375-72 72c.042969 39.746094 32.253906 71.957031 72 72zm0-128c30.929688 0 56 25.074219 56 56 0 30.929688-25.070312 56-56 56-30.925781 0-56-25.070312-56-56 .035156-30.914062 25.085938-55.964844 56-56zm0 0" fill="#1e81ce"/><path d="m304 200c-4.417969 0-8-3.582031-8-8h-16c.042969 10.132812 6.445312 19.148438 16 22.527344v9.472656h16v-9.472656c11.011719-3.878906 17.621094-15.132813 15.644531-26.640625-1.980469-11.507813-11.96875-19.910157-23.644531-19.886719-4.417969 0-8-3.582031-8-8s3.582031-8 8-8 8 3.582031 8 8h16c-.042969-10.132812-6.445312-19.148438-16-22.527344v-9.472656h-16v9.472656c-11.011719 3.878906-17.621094 15.132813-15.644531 26.640625 1.980469 11.507813 11.96875 19.910157 23.644531 19.886719 4.417969 0 8 3.582031 8 8s-3.582031 8-8 8zm0 0" fill="#1e81ce"/></svg>