<svg height="512" viewBox="0 0 64 64" width="512" xmlns="http://www.w3.org/2000/svg"><g fill="#9bc9ff"><path d="m35.87 21h21.13v-5.15l-18.379-6.34a8 8 0 0 1 -2.751 11.49z"/><path d="m3 13v12h58v-12l-29-10zm54 2.85v5.15h-21.13a7.988 7.988 0 0 1 -7.74 0h-21.13v-5.15l18.379-6.34a8 8 0 0 1 13.242 0z"/><path d="m24 14a7.964 7.964 0 0 1 1.379-4.49l-18.379 6.34v5.15h21.13a8 8 0 0 1 -4.13-7z"/><path d="m28 29h8a3 3 0 0 0 3-3v-1h-14v1a3 3 0 0 0 3 3z"/><path d="m28 29h8v20h-8z"/><path d="m43 26a3 3 0 0 0 3 3h8a3 3 0 0 0 3-3v-1h-14z"/><path d="m46 29h8v20h-8z"/><path d="m21 26v-1h-14v1a3 3 0 0 0 3 3h8a3 3 0 0 0 3-3z"/><path d="m36 49h-8a3 3 0 0 0 -3 3v1h14v-1a3 3 0 0 0 -3-3z"/><path d="m43 52v1h14v-1a3 3 0 0 0 -3-3h-8a3 3 0 0 0 -3 3z"/><path d="m21 52a3 3 0 0 0 -3-3h-8a3 3 0 0 0 -3 3v1h14z"/><path d="m10 29h8v20h-8z"/><path d="m39 53h-14-4-14-2v4h54v-4h-2-14z"/><path d="m3 57v4h58v-4h-2-54z"/></g><path d="m27.9 22a8.921 8.921 0 0 0 8.2 0h20.9a1 1 0 0 0 1-1v-5.15a1 1 0 0 0 -.674-.945l-18.1-6.243a8.966 8.966 0 0 0 -14.458 0l-18.1 6.243a1 1 0 0 0 -.668.945v5.15a1 1 0 0 0 1 1zm28.1-5.437v3.437h-17.311a8.941 8.941 0 0 0 1.873-8.763zm-24-9.563a7 7 0 1 1 -7 7 7.008 7.008 0 0 1 7-7zm-24 9.563 15.438-5.326a8.941 8.941 0 0 0 1.873 8.763h-17.311z" fill="#1e81ce"/><path d="m58 26h3a1 1 0 0 0 1-1v-12a1 1 0 0 0 -.674-.945l-29-10a.985.985 0 0 0 -.652 0l-29 10a1 1 0 0 0 -.674.945v12a1 1 0 0 0 1 1h3a4 4 0 0 0 3 3.858v18.284a4 4 0 0 0 -3 3.858h-1a1 1 0 0 0 -1 1v3h-1a1 1 0 0 0 -1 1v4a1 1 0 0 0 1 1h58a1 1 0 0 0 1-1v-4a1 1 0 0 0 -1-1h-1v-3a1 1 0 0 0 -1-1h-1a4 4 0 0 0 -3-3.858v-18.284a4 4 0 0 0 3-3.858zm-4 2h-8a2 2 0 0 1 -2-2h12a2 2 0 0 1 -2 2zm-1 20h-6v-18h6zm-11 4h-2a4 4 0 0 0 -3-3.858v-18.284a4 4 0 0 0 3-3.858h2a4 4 0 0 0 3 3.858v18.284a4 4 0 0 0 -3 3.858zm-20 0a4 4 0 0 0 -3-3.858v-18.284a4 4 0 0 0 3-3.858h2a4 4 0 0 0 3 3.858v18.284a4 4 0 0 0 -3 3.858zm-11-22h6v18h-6zm18 0h6v18h-6zm7-2h-8a2 2 0 0 1 -2-2h12a2 2 0 0 1 -2 2zm-8 22h8a2 2 0 0 1 2 2h-12a2 2 0 0 1 2-2zm-24-26v-10.287l28-9.655 28 9.655v10.287zm4 2h12a2 2 0 0 1 -2 2h-8a2 2 0 0 1 -2-2zm2 24h8a2 2 0 0 1 2 2h-12a2 2 0 0 1 2-2zm50 10h-56v-2h56zm-54-4v-2h52v2zm50-4h-12a2 2 0 0 1 2-2h8a2 2 0 0 1 2 2z" fill="#1e81ce"/><path d="m31 8v1.184a2.993 2.993 0 0 0 1 5.816 1 1 0 1 1 -1 1 1 1 0 0 0 -2 0 3 3 0 0 0 2 2.816v1.184a1 1 0 0 0 2 0v-1.184a2.993 2.993 0 0 0 -1-5.816 1 1 0 1 1 1-1 1 1 0 0 0 2 0 3 3 0 0 0 -2-2.816v-1.184a1 1 0 0 0 -2 0z" fill="#1e81ce"/></svg>