<svg height="491pt" viewBox="0 -5 491.536 491" width="491pt" xmlns="http://www.w3.org/2000/svg"><path d="m349.769531 216.269531c-70.695312 0-128 57.304688-128 128 0 70.691407 57.304688 128 128 128 70.691407 0 128-57.308593 128-128 0-70.695312-57.308593-128-128-128zm0 224c-53.019531 0-96-42.980469-96-96s42.980469-96 96-96 96 42.980469 96 96-42.980469 96-96 96zm0 0" fill="#9bc9ff"/><path d="m349.769531 248.269531c-53.019531 0-96 42.980469-96 96s42.980469 96 96 96 96-42.980469 96-96-42.980469-96-96-96zm40 80c0 8.835938-7.164062 16-16 16 8.835938 0 16 7.160157 16 16v16c0 8.835938-7.164062 16-16 16h-40l.199219 24-.199219-24h-8v-96h8l.199219-24-.199219 24h40c8.835938 0 16 7.160157 16 16zm0 0" fill="#9bc9ff"/><path d="m373.769531 296.269531h-48v48h48c8.835938 0 16-7.164062 16-16v-16c0-8.839843-7.164062-16-16-16zm0 0" fill="#9bc9ff"/><path d="m325.769531 392.269531h48c8.835938 0 16-7.164062 16-16v-16c0-8.839843-7.164062-16-16-16h-48zm0 0" fill="#9bc9ff"/><g fill="#1e81ce"><path d="m349.769531 448.269531c-57.4375 0-104-46.5625-104-104s46.5625-104 104-104 104 46.5625 104 104c-.066406 57.410157-46.589843 103.933594-104 104zm0-192c-48.601562 0-88 39.398438-88 88 0 48.597657 39.398438 88 88 88 48.597657 0 88-39.402343 88-88-.058593-48.578125-39.425781-87.945312-88-88zm0 0"/><path d="m397.769531 312.269531c0-13.257812-10.746093-24-24-24h-8v-16h-16v16h-7.9375l-.0625-16h-16l.0625 16h-24.0625v16h16v80h-16v16h24.0625l-.0625 16h16l.0625-16h7.9375v16h16v-16h8c13.253907 0 24-10.746093 24-24v-16c-.023437-5.925781-2.246093-11.628906-6.242187-16 3.996094-4.375 6.21875-10.078125 6.242187-16zm-64-8h40c4.417969 0 8 3.582031 8 8v16c0 4.417969-3.582031 8-8 8h-40zm48 72c0 4.417969-3.582031 8-8 8h-40v-32h40c4.417969 0 8 3.582031 8 8zm0 0"/><path d="m349.769531 480.269531c-75.113281 0-136-60.890625-136-136 0-75.113281 60.886719-136 136-136 75.109375 0 136 60.886719 136 136-.085937 75.074219-60.925781 135.914063-136 136zm0-256c-66.277343 0-120 53.722657-120 120 0 66.273438 53.722657 120 120 120 66.273438 0 120-53.726562 120-120-.078125-66.246093-53.757812-119.925781-120-120zm0 0"/><path d="m141.769531 240.269531c-57.4375 0-104-46.5625-104-104s46.5625-104 104-104 104 46.5625 104 104c-.066406 57.410157-46.589843 103.933594-104 104zm0-192c-48.601562 0-88 39.398438-88 88 0 48.597657 39.398438 88 88 88 48.597657 0 88-39.402343 88-88-.058593-48.578125-39.425781-87.945312-88-88zm0 0"/><path d="m141.769531 272.269531c-75.113281 0-136-60.890625-136-136 0-75.113281 60.886719-136 136-136 75.109375 0 136 60.886719 136 136-.085937 75.074219-60.925781 135.914063-136 136zm0-256c-66.277343 0-120 53.722657-120 120 0 66.273438 53.722657 120 120 120 66.273438 0 120-53.726562 120-120-.078125-66.246093-53.757812-119.925781-120-120zm0 0"/><path d="m141.769531 128.269531c-13.007812 0-24-7.328125-24-16s10.992188-16 24-16c13.007813 0 24 7.328125 24 16 0 4.417969 3.582031 8 8 8s8-3.582031 8-8c0-15.457031-13.769531-28.378906-32-31.355469v-16.644531h-16v16.644531c-18.234375 2.976563-32 15.898438-32 31.355469 0 17.644531 17.941407 32 40 32 13.007813 0 24 7.328125 24 16s-10.992187 16-24 16c-13.007812 0-24-7.328125-24-16 0-4.417969-3.582031-8-8-8s-8 3.582031-8 8c0 15.453125 13.765625 28.375 32 31.351563v16.648437h16v-16.648437c18.230469-2.976563 32-15.898438 32-31.351563 0-17.648437-17.945312-32-40-32zm0 0"/><path d="m413.769531 183.8125v-31.542969h-120v-16h136v16.453125l34.230469-24.453125-34.230469-24.457031v16.457031h-136v-16h120v-31.546875l77.765625 55.546875zm0 0"/><path d="m293.769531 80.269531h16v16h-16zm0 0"/><path d="m325.769531 80.269531h16v16h-16zm0 0"/><path d="m357.769531 80.269531h16v16h-16zm0 0"/><path d="m389.769531 80.269531h16v16h-16zm0 0"/><path d="m77.769531 399.8125-77.769531-55.542969 77.769531-55.546875v31.546875h120v16h-136v-16.457031l-34.234375 24.457031 34.234375 24.453125v-16.453125h136v16h-120zm0 0"/><path d="m181.769531 376.269531h16v16h-16zm0 0"/><path d="m149.769531 376.269531h16v16h-16zm0 0"/><path d="m117.769531 376.269531h16v16h-16zm0 0"/><path d="m85.769531 376.269531h16v16h-16zm0 0"/></g></svg>