<svg height="512" viewBox="0 0 64 64" width="512" xmlns="http://www.w3.org/2000/svg"><path d="m25 39h-16v20h22v-28z" fill="#9bc9ff"/><path d="m31 31h-21l-6 8h5 16z" fill="#9bc9ff"/><path d="m53 39h5l-6-8h-21l6 8z" fill="#9bc9ff"/><path d="m45 17a14 14 0 1 0 -14 14 14 14 0 0 0 14-14zm-14 10a10 10 0 1 1 10-10 10.011 10.011 0 0 1 -10 10z" fill="#9bc9ff"/><path d="m42 52a8.977 8.977 0 0 1 11-8.769v-4.231h-16l-6-8v28h14.349a8.98 8.98 0 0 1 -3.349-7z" fill="#9bc9ff"/><g fill="#1e81ce"><path d="m54 42.461v-2.461h4a1 1 0 0 0 .8-1.6l-6-8a1 1 0 0 0 -.8-.4h-13.548a15 15 0 1 0 -14.9 0h-13.552a1 1 0 0 0 -.8.4l-6 8a1 1 0 0 0 .8 1.6h4v19a1 1 0 0 0 1 1h36.026a9.993 9.993 0 1 0 8.974-17.539zm-2-.41a9.982 9.982 0 0 0 -8.981 15.949h-11.019v-24l4.2 5.6a1 1 0 0 0 .8.4h15zm4-4.051h-18.5l-4.5-6h18.5zm-38-21a13 13 0 1 1 13 13 13.015 13.015 0 0 1 -13-13zm-7.5 15h18.5l-4.5 6h-18.5zm-.5 8h15a1 1 0 0 0 .8-.4l4.2-5.6v24h-20zm41 20a8 8 0 1 1 8-8 8.009 8.009 0 0 1 -8 8z"/><path d="m31 6a11 11 0 1 0 11 11 11.013 11.013 0 0 0 -11-11zm0 20a9 9 0 1 1 9-9 9.01 9.01 0 0 1 -9 9z"/><path d="m46 49a1 1 0 0 0 -1 1v4a1 1 0 0 0 2 0v-4a1 1 0 0 0 -1-1z"/><path d="m51 51a1 1 0 0 0 0-2h-1a2 2 0 0 0 -2 2v2a2 2 0 0 0 2 2h1a1 1 0 0 0 0-2h-1v-2z"/><path d="m55.5 49a2.5 2.5 0 0 0 -2.5 2.5v1a2.5 2.5 0 0 0 5 0v-1a2.5 2.5 0 0 0 -2.5-2.5zm.5 3.5a.5.5 0 0 1 -1 0v-1a.5.5 0 0 1 1 0z"/><path d="m19 50h-6a1 1 0 0 0 0 2h6a1 1 0 0 0 0-2z"/><path d="m19 54h-6a1 1 0 0 0 0 2h6a1 1 0 0 0 0-2z"/><path d="m35.337 16.534a3.474 3.474 0 0 0 -2.337-5.483v-1.051a1 1 0 0 0 -2 0v1h-1v-1a1 1 0 0 0 -2 0v1h-1a1 1 0 0 0 0 2v8a1 1 0 0 0 0 2h1v1a1 1 0 0 0 2 0v-1h1v1a1 1 0 0 0 2 0v-1h.5a3.492 3.492 0 0 0 1.837-6.466zm-1.337-2.034a1.5 1.5 0 0 1 -1.5 1.5h-3.5v-3h3.5a1.5 1.5 0 0 1 1.5 1.5zm-.5 6.5h-4.5v-3h4.5a1.5 1.5 0 0 1 0 3z"/></g></svg>