<svg height="480pt" viewBox="-72 0 479 480" width="480pt" xmlns="http://www.w3.org/2000/svg"><path d="m8.5 392v48h80v32h48v-32h32v32h48v-32c47.734375.015625 90.230469-30.238281 105.839844-75.351562 15.609375-45.113282.898437-95.160157-36.640625-124.648438 3.515625-2.71875 6.855469-5.65625 10-8.800781 32.035156-32.03125 41.621093-80.207031 24.28125-122.0625-17.335938-41.851563-58.179688-69.140625-103.480469-69.136719v-32h-48v32h-32v-32h-48v32h-80v48h32v304zm80-304h128c35.347656 0 64 28.652344 64 64s-28.652344 64-64 64h-128zm0 176h128c35.347656 0 64 28.652344 64 64s-28.652344 64-64 64h-128zm0 0" fill="#9bc9ff"/><path d="m224.5 480h-64v-32h-16v32h-64v-32h-80v-64h32v-288h-32v-64h80v-32h64v32h16v-32h64v32.265625c46.976562 3.136719 87.773438 33.453125 104.335938 77.527344 16.558593 44.070312 5.816406 93.753906-27.472657 127.046875-1.078125 1.089844-2.183593 2.144531-3.3125 3.199218 35.101563 32.570313 47.484375 82.890626 31.5 128.027344-15.984375 45.136719-57.273437 76.449219-105.050781 79.667969zm-48-16h32v-32h8c44.328125.019531 83.792969-28.070312 98.285156-69.960938 14.496094-41.890624.832032-88.363281-34.027344-115.742187l-8.082031-6.34375 8.136719-6.289063c3.246094-2.507812 6.328125-5.21875 9.230469-8.121093 29.75-29.742188 38.648437-74.480469 22.550781-113.34375-16.101562-38.863281-54.027344-64.203125-96.09375-64.199219h-8v-32h-32v32h-48v-32h-32v32h-80v32h32v320h-32v32h80v32h32v-32h48zm40-64h-136v-144h136c39.765625 0 72 32.234375 72 72s-32.234375 72-72 72zm-120-16h120c30.929688 0 56-25.070312 56-56s-25.070312-56-56-56h-120zm120-160h-136v-144h136c39.765625 0 72 32.234375 72 72s-32.234375 72-72 72zm-120-16h120c30.929688 0 56-25.070312 56-56s-25.070312-56-56-56h-120zm0 0" fill="#1e81ce"/></svg>