<svg height="480pt" viewBox="0 0 480 480" width="480pt" xmlns="http://www.w3.org/2000/svg"><path d="m456 184h-57.601562c-1.949219-5.59375-4.21875-11.070312-6.796876-16.398438l40.71875-40.722656c3.003907-3 4.691407-7.074218 4.691407-11.320312s-1.6875-8.316406-4.691407-11.320313l-56.558593-56.558593c-3.003907-3.003907-7.074219-4.691407-11.320313-4.691407s-8.320312 1.6875-11.320312 4.691407l-40.722656 40.71875c-5.328126-2.578126-10.804688-4.847657-16.398438-6.796876v-57.601562c-.027344-8.824219-7.175781-15.972656-16-16h-80c-8.824219.027344-15.972656 7.175781-16 16v57.601562c-5.59375 1.949219-11.070312 4.21875-16.398438 6.796876l-40.722656-40.71875c-3-3.003907-7.074218-4.691407-11.320312-4.691407s-8.316406 1.6875-11.320313 4.691407l-56.558593 56.558593c-3.003907 3.003907-4.691407 7.074219-4.691407 11.320313s1.6875 8.320312 4.691407 11.320312l40.71875 40.722656c-2.578126 5.328126-4.847657 10.804688-6.796876 16.398438h-57.601562c-8.824219.027344-15.972656 7.175781-16 16v80c.027344 8.824219 7.175781 15.972656 16 16h57.601562c1.949219 5.59375 4.21875 11.070312 6.796876 16.398438l-40.71875 40.722656c-3.003907 3-4.691407 7.074218-4.691407 11.320312s1.6875 8.316406 4.691407 11.320313l56.558593 56.558593c3.003907 3.003907 7.074219 4.691407 11.320313 4.691407s8.320312-1.6875 11.320312-4.691407l40.722656-40.71875c5.328126 2.578126 10.804688 4.847657 16.398438 6.796876v57.601562c.027344 8.824219 7.175781 15.972656 16 16h80c8.824219-.027344 15.972656-7.175781 16-16v-57.601562c5.59375-1.949219 11.070312-4.21875 16.398438-6.796876l40.722656 40.71875c3 3.003907 7.074218 4.691407 11.320312 4.691407s8.316406-1.6875 11.320313-4.691407l56.558593-56.558593c3.003907-3.003907 4.691407-7.074219 4.691407-11.320313s-1.6875-8.320312-4.691407-11.320312l-40.71875-40.722656c2.578126-5.328126 4.847657-10.804688 6.796876-16.398438h57.601562c8.824219-.027344 15.972656-7.175781 16-16v-80c-.027344-8.824219-7.175781-15.972656-16-16zm-216 152c-53.019531 0-96-42.980469-96-96s42.980469-96 96-96 96 42.980469 96 96-42.980469 96-96 96zm0 0" fill="#9bc9ff"/><g fill="#1e81ce"><path d="m456 176h-52c-.847656-2.175781-1.777344-4.390625-2.785156-6.679688l36.800781-36.800781c9.378906-9.375 9.378906-24.578125 0-33.953125l-56.558594-56.558594c-9.375-9.378906-24.578125-9.378906-33.953125 0l-36.800781 36.800782c-2.289063-1.007813-4.503906-1.9375-6.679687-2.785156v-52.023438c0-13.253906-10.746094-24-24-24h-80.023438c-13.253906 0-24 10.746094-24 24v52c-2.175781.847656-4.390625 1.777344-6.679688 2.785156l-36.800781-36.800781c-9.375-9.378906-24.578125-9.378906-33.953125 0l-56.566406 56.558594c-9.359375 9.382812-9.359375 24.570312 0 33.953125l36.800781 36.800781c-1.007812 2.289063-1.9375 4.503906-2.785156 6.679687h-52.015625c-13.253906 0-24 10.746094-24 24v80.023438c0 13.253906 10.746094 24 24 24h52c.847656 2.175781 1.777344 4.390625 2.785156 6.679688l-36.800781 36.800781c-9.378906 9.375-9.378906 24.578125 0 33.953125l56.558594 56.558594c9.382812 9.359374 24.570312 9.359374 33.953125 0l36.800781-36.800782c2.289063 1.007813 4.503906 1.9375 6.679687 2.785156v52.023438c0 13.253906 10.746094 24 24 24h80.023438c13.253906 0 24-10.746094 24-24v-52c2.175781-.847656 4.390625-1.777344 6.679688-2.785156l36.800781 36.800781c9.382812 9.359375 24.570312 9.359375 33.953125 0l56.566406-56.558594c9.359375-9.382812 9.359375-24.570312 0-33.953125l-36.800781-36.800781c1.007812-2.289063 1.9375-4.503906 2.785156-6.679687h52.015625c13.253906 0 24-10.746094 24-24v-80.023438c0-13.253906-10.746094-24-24-24zm8 104c0 4.417969-3.582031 8-8 8h-57.601562c-3.417969 0-6.457032 2.171875-7.566407 5.40625-1.847656 5.300781-4.003906 10.492188-6.449219 15.546875-1.449218 3.066406-.808593 6.714844 1.601563 9.101563l40.71875 40.722656c1.503906 1.5 2.351563 3.539062 2.351563 5.664062s-.847657 4.160156-2.351563 5.664063l-56.558594 56.558593c-3.171875 3.019532-8.15625 3.019532-11.328125 0l-40.71875-40.71875c-2.390625-2.410156-6.039062-3.050781-9.105468-1.601562-5.054688 2.445312-10.242188 4.597656-15.542969 6.449219-3.265625 1.097656-5.460938 4.164062-5.449219 7.605469v57.601562c0 4.417969-3.582031 8-8 8h-80c-4.417969 0-8-3.582031-8-8v-57.601562c0-3.417969-2.171875-6.457032-5.40625-7.566407-5.300781-1.847656-10.492188-4.003906-15.546875-6.449219-3.066406-1.449218-6.714844-.808593-9.101563 1.601563l-40.722656 40.71875c-3.171875 3.019531-8.152344 3.019531-11.328125 0l-56.558593-56.558594c-1.503907-1.5-2.351563-3.539062-2.351563-5.664062s.847656-4.164063 2.351563-5.664063l40.71875-40.71875c2.410156-2.390625 3.050781-6.039062 1.601562-9.105468-2.445312-5.054688-4.597656-10.242188-6.449219-15.542969-1.097656-3.265625-4.164062-5.460938-7.605469-5.449219h-57.601562c-4.417969 0-8-3.582031-8-8v-80c0-4.417969 3.582031-8 8-8h57.601562c3.417969 0 6.457032-2.171875 7.566407-5.40625 1.847656-5.300781 4.003906-10.492188 6.449219-15.546875 1.449218-3.066406.808593-6.714844-1.601563-9.101563l-40.71875-40.722656c-1.503906-1.5-2.351563-3.539062-2.351563-5.664062s.847657-4.160156 2.351563-5.664063l56.558594-56.558593c3.167969-3.027344 8.160156-3.027344 11.328125 0l40.71875 40.71875c2.390625 2.410156 6.039062 3.050781 9.105468 1.601562 5.054688-2.445312 10.242188-4.597656 15.542969-6.449219 3.265625-1.097656 5.460938-4.164062 5.449219-7.605469v-57.601562c0-4.417969 3.582031-8 8-8h80c4.417969 0 8 3.582031 8 8v57.601562c0 3.417969 2.171875 6.457032 5.40625 7.566407 5.300781 1.847656 10.492188 4.003906 15.546875 6.449219 3.066406 1.449218 6.714844.808593 9.101563-1.601563l40.722656-40.71875c3.171875-3.019531 8.152344-3.019531 11.328125 0l56.558593 56.558594c1.503907 1.5 2.351563 3.539062 2.351563 5.664062s-.847656 4.164063-2.351563 5.664063l-40.71875 40.71875c-2.410156 2.390625-3.050781 6.039062-1.601562 9.105468 2.445312 5.054688 4.597656 10.242188 6.449219 15.542969 1.097656 3.265625 4.164062 5.460938 7.605469 5.449219h57.601562c4.417969 0 8 3.582031 8 8zm0 0"/><path d="m240 136c-57.4375 0-104 46.5625-104 104s46.5625 104 104 104 104-46.5625 104-104c-.066406-57.410156-46.589844-103.933594-104-104zm0 192c-48.601562 0-88-39.398438-88-88s39.398438-88 88-88 88 39.398438 88 88c-.058594 48.578125-39.421875 87.941406-88 88zm0 0"/></g></svg>