<svg height="512" viewBox="0 0 64 64" width="512" xmlns="http://www.w3.org/2000/svg"><g id="Personal_data_protection" data-name="Personal data protection"><path d="m56 43h-16a2 2 0 0 0 -2 2v14a2 2 0 0 0 2 2h16a2 2 0 0 0 2-2v-14a2 2 0 0 0 -2-2z" fill="#9bc9ff"/><path d="m42 37v6h3v-6a3 3 0 0 1 6 0v6h3v-6a6 6 0 0 0 -12 0z" fill="#9bc9ff"/><path d="m10 7v14h4v-2a4 4 0 0 1 8 0v2h4v-14zm8 7a2 2 0 1 1 2-2 2 2 0 0 1 -2 2z" fill="#9bc9ff"/><path d="m18 15a4 4 0 0 0 -4 4v2h8v-2a4 4 0 0 0 -4-4z" fill="#9bc9ff"/><circle cx="18" cy="12" fill="#9bc9ff" r="2"/><g fill="#1e81ce"><path d="m48 49a1 1 0 0 1 1 1 1 1 0 0 0 2 0 3 3 0 0 0 -2-2.816v-1.184a1 1 0 0 0 -2 0v1.184a2.993 2.993 0 0 0 1 5.816 1 1 0 1 1 -1 1 1 1 0 0 0 -2 0 3 3 0 0 0 2 2.816v1.184a1 1 0 0 0 2 0v-1.184a2.993 2.993 0 0 0 -1-5.816 1 1 0 0 1 0-2z"/><path d="m56 42h-1v-5a7 7 0 0 0 -6-6.92v-27.08a1 1 0 0 0 -1-1h-42a1 1 0 0 0 -1 1v54a1 1 0 0 0 1 1h31v1a3 3 0 0 0 3 3h16a3 3 0 0 0 3-3v-14a3 3 0 0 0 -3-3zm-3-5v5h-1v-5a4 4 0 0 0 -8 0v5h-1v-5a5 5 0 0 1 10 0zm-3 5h-4v-5a2 2 0 0 1 4 0zm-43 14v-52h40v26.08a7 7 0 0 0 -6 6.92v5h-1a3 3 0 0 0 -3 3v11zm50 3a1 1 0 0 1 -1 1h-16a1 1 0 0 1 -1-1v-14a1 1 0 0 1 1-1h16a1 1 0 0 1 1 1z"/><path d="m26 6h-16a1 1 0 0 0 -1 1v14a1 1 0 0 0 1 1h16a1 1 0 0 0 1-1v-14a1 1 0 0 0 -1-1zm-11 14v-1a3 3 0 0 1 6 0v1zm3-7a1 1 0 1 1 1-1 1 1 0 0 1 -1 1zm7 7h-2v-1a5 5 0 0 0 -3.168-4.641 3 3 0 1 0 -3.664 0 5 5 0 0 0 -3.168 4.641v1h-2v-12h14z"/><path d="m32 15h-2a1 1 0 0 1 0-2h2a1 1 0 0 1 0 2z"/><path d="m44 15h-8a1 1 0 0 1 0-2h8a1 1 0 0 1 0 2z"/><path d="m32 11h-2a1 1 0 0 1 0-2h2a1 1 0 0 1 0 2z"/><path d="m44 11h-8a1 1 0 0 1 0-2h8a1 1 0 0 1 0 2z"/><path d="m32 19h-2a1 1 0 0 1 0-2h2a1 1 0 0 1 0 2z"/><path d="m44 19h-8a1 1 0 0 1 0-2h8a1 1 0 0 1 0 2z"/><path d="m42 28h-30a1 1 0 0 1 0-2h30a1 1 0 0 1 0 2z"/><path d="m38 34h-26a1 1 0 0 1 0-2h26a1 1 0 0 1 0 2z"/><path d="m38 40h-26a1 1 0 0 1 0-2h26a1 1 0 0 1 0 2z"/><path d="m34 46h-22a1 1 0 0 1 0-2h22a1 1 0 0 1 0 2z"/><path d="m34 52h-22a1 1 0 0 1 0-2h22a1 1 0 0 1 0 2z"/></g></g></svg>