<svg height="480pt" viewBox="-38 0 480 480" width="480pt" xmlns="http://www.w3.org/2000/svg"><path d="m316.460938 392v80l80-80zm0 0" fill="#9bc9ff"/><path d="m332.460938 240c0 53.019531-42.980469 96-96 96-53.019532 0-96-42.980469-96-96s42.980468-96 96-96c53.019531 0 96 42.980469 96 96zm0 0" fill="#9bc9ff"/><path d="m129.546875 346.910156-16.964844-16.964844-97.546875 97.535157c-9.371094 9.371093-9.371094 24.570312 0 33.945312 9.375 9.371094 24.574219 9.371094 33.945313 0l97.535156-97.546875zm0 0" fill="#9bc9ff"/><g fill="#1e81ce"><path d="m68.460938 0v328h16v-312h304v368h-80v80h-232v16h243.3125l84.6875-84.6875v-395.3125zm308.6875 400-52.6875 52.6875v-52.6875zm0 0"/><path d="m140.859375 346.910156 28-28c42.554687 36.472656 106.320313 32.792969 144.398437-8.328125 38.078126-41.121093 36.851563-104.980469-2.777343-144.609375-39.628907-39.628906-103.488281-40.855468-144.609375-2.777344-41.121094 38.078126-44.800782 101.84375-8.332032 144.398438l-28 28-16.964843-16.96875-103.203125 103.199219c-12.496094 12.496093-12.496094 32.757812 0 45.253906 12.5 12.5 32.761718 12.5 45.257812 0l103.199219-103.199219zm95.601563-194.910156c48.601562 0 88 39.398438 88 88s-39.398438 88-88 88c-48.601563 0-88-39.398438-88-88 .058593-48.578125 39.421874-87.941406 88-88zm-193.136719 303.769531c-6.25 6.25-16.382813 6.25-22.632813 0s-6.25-16.382812 0-22.632812l91.890625-91.878907 22.621094 22.621094zm0 0"/><path d="m180.460938 232h112v16h-112zm0 0"/><path d="m212.460938 200h80v16h-80zm0 0"/><path d="m180.460938 264h48v16h-48zm0 0"/><path d="m244.460938 264h48v16h-48zm0 0"/><path d="m180.460938 200h16v16h-16zm0 0"/></g></svg>