<svg height="480pt" viewBox="0 -75 480 479" width="480pt" xmlns="http://www.w3.org/2000/svg"><path d="m326.726562 200.519531-38.726562 31.992188-38.726562-31.992188-145.273438-120.007812v240h368v-240zm0 0" fill="#9bc9ff"/><path d="m288 152.511719c-39.765625 0-72-32.238281-72-72h-112l145.273438 120 38.726562 32 38.726562-32 145.273438-120h-112c0 39.761719-32.234375 72-72 72zm0 0" fill="#9bc9ff"/><g fill="#1e81ce"><path d="m24 72.511719h56v16h-56zm0 0"/><path d="m0 104.511719h80v16h-80zm0 0"/><path d="m40 136.511719h40v16h-40zm0 0"/><path d="m367.59375 72.511719c-4.105469-40.886719-38.511719-72.011719-79.601562-72.011719-41.089844 0-75.496094 31.125-79.601563 72.011719h-112.390625v256h384v-256zm-79.59375 149.597656-161.753906-133.597656h82.160156c4.105469 40.882812 38.511719 72.007812 79.601562 72.007812 41.089844 0 75.496094-31.125 79.601563-72.007812h82.160156zm0-205.597656c35.347656 0 64 28.652343 64 64 0 35.34375-28.652344 64-64 64s-64-28.65625-64-64c.039062-35.332031 28.671875-63.960938 64-64zm-176 296v-215.019531l124.710938 103.019531-69.847657 57.6875 10.191407 12.335937 72.21875-59.625 38.726562 32 38.726562-32 72.21875 59.648438 10.191407-12.335938-69.847657-57.710937 124.710938-103.019531v215.019531zm0 0"/><path d="m288 104.511719c-4.417969 0-8-3.582031-8-8h-16c.042969 10.132812 6.445312 19.148437 16 22.527343v9.472657h16v-9.472657c11.011719-3.878906 17.621094-15.136718 15.644531-26.640624-1.980469-11.507813-11.96875-19.910157-23.644531-19.886719-4.417969 0-8-3.582031-8-8 0-4.421875 3.582031-8 8-8s8 3.578125 8 8h16c-.042969-10.136719-6.445312-19.152344-16-22.53125v-9.46875h-16v9.46875c-11.011719 3.878906-17.621094 15.136719-15.644531 26.644531 1.980469 11.503906 11.96875 19.90625 23.644531 19.886719 4.417969 0 8 3.578125 8 8 0 4.417969-3.582031 8-8 8zm0 0"/></g></svg>