<svg height="484pt" viewBox="-98 0 484 484.296" width="484pt" xmlns="http://www.w3.org/2000/svg"><path d="m184.148438 244.296875h-72c-54.71875 21.757813-104 92.640625-104 152 0 70.71875 65.28125 80 136 80s136-9.28125 136-80c0-58.082031-43.039063-128.640625-96-152zm-40 192c-39.765626 0-72-32.238281-72-72 0-39.765625 32.234374-72 72-72 39.765624 0 72 32.234375 72 72 0 39.761719-32.234376 72-72 72zm0 0" fill="#9bc9ff"/><path d="m112.148438 244.296875h72l35.910156-46.175781c3.753906-4.824219 4.429687-11.363282 1.746094-16.851563-2.683594-5.488281-8.257813-8.972656-14.367188-8.972656h-115.65625c-6.308594-.019531-12.039062 3.675781-14.632812 9.425781-2.589844 5.753906-1.5625 12.492188 2.632812 17.207032zm0 0" fill="#9bc9ff"/><g fill="#1e81ce"><path d="m196.445312 241.519531 29.925782-38.488281c5.628906-7.234375 6.644531-17.042969 2.617187-25.277344-4.023437-8.234375-12.386719-13.457031-21.550781-13.457031h-115.65625c-9.453125 0-18.023438 5.546875-21.894531 14.167969-3.871094 8.621094-2.320313 18.710937 3.957031 25.773437l25.128906 37.28125c-53.71875 27.242188-98.824218 96.601563-98.824218 154.777344 0 88 97.253906 88 144 88 46.742187 0 144 0 144-88 0-58.785156-41.144532-127.050781-91.703126-154.777344zm-112-56.503906c1.269532-2.890625 4.144532-4.746094 7.300782-4.71875h115.691406c3.054688 0 5.839844 1.742187 7.183594 4.484375 1.339844 2.746094 1.003906 6.015625-.875 8.425781l-33.511719 43.089844h-64.496094l-29.941406-42.6875c-2.121094-2.34375-2.640625-5.722656-1.320313-8.59375zm59.703126 283.28125c-76.800782 0-128-12.242187-128-72 0-54.578125 46.320312-122.738281 97.597656-144h68.722656c47.925781 22.160156 89.679688 88.941406 89.679688 144 0 59.757813-51.199219 72-128 72zm0 0"/><path d="m144.148438 340.296875c15.488281 0 24 6.007813 24 8h16c0-12-13.296876-21.441406-32-23.542969v-16.457031h-16v16.457031c-18.703126 2.101563-32 11.542969-32 23.542969 0 13.679687 17.191406 24 40 24 15.488281 0 24 6.007813 24 8s-8.511719 8-24 8c-15.488282 0-24-6.007813-24-8h-16c0 12 13.296874 21.4375 32 23.542969v16.457031h16v-16.457031c18.703124-2.105469 32-11.542969 32-23.542969 0-13.679687-17.191407-24-40-24-15.488282 0-24-6.007813-24-8s8.511718-8 24-8zm0 0"/><path d="m144.148438 284.296875c-44.183594 0-80 35.816406-80 80s35.816406 80 80 80c44.183593 0 80-35.816406 80-80-.050782-44.164063-35.835938-79.953125-80-80zm0 144c-35.347657 0-64-28.65625-64-64 0-35.347656 28.652343-64 64-64 35.347656 0 64 28.652344 64 64-.039063 35.328125-28.671876 63.960937-64 64zm0 0"/><path d="m112.148438 148.296875h64v-72h33.390624l-65.390624-76.296875-65.390626 76.296875h33.390626zm32-123.703125 30.609374 35.703125h-14.609374v72h-32v-72h-14.609376zm0 0"/></g></svg>